<svg xmlns="http://www.w3.org/2000/svg"  viewBox="0 0 64 64" width="48px" height="48px"><path d="M 32 10 C 19.85 10 10 19.85 10 32 C 10 44.15 19.85 54 32 54 C 44.15 54 54 44.15 54 32 C 54 19.85 44.15 10 32 10 z M 33.529297 18.787109 C 33.616453 18.771266 33.707328 18.772469 33.798828 18.792969 L 39.191406 19.869141 C 39.535406 19.268141 40.159516 18.863969 40.853516 18.792969 C 42.062516 18.661969 43.144391 19.536141 43.275391 20.744141 C 43.406391 21.953141 42.532219 23.036969 41.324219 23.167969 C 40.115219 23.298969 39.031391 22.425797 38.900391 21.216797 L 34.193359 20.226562 L 32.765625 27.089844 C 35.789625 27.155844 38.731328 28.090875 41.236328 29.796875 C 41.804328 29.255875 42.554797 28.931297 43.341797 28.904297 C 45.118797 28.844297 46.605875 30.228 46.671875 32 C 46.693875 33.236 45.999531 34.372781 44.894531 34.925781 C 44.916531 35.247781 44.916531 35.571531 44.894531 35.894531 C 44.894531 40.827531 39.152312 44.830078 32.070312 44.830078 C 24.988313 44.830078 19.246094 40.821531 19.246094 35.894531 C 19.224094 35.571531 19.224094 35.248781 19.246094 34.925781 C 18.923094 34.783781 18.633813 34.580703 18.382812 34.345703 C 17.086812 33.131703 17.026234 31.097641 18.240234 29.806641 C 19.454234 28.510641 21.488297 28.450063 22.779297 29.664062 C 25.316297 27.947062 28.297375 27.006031 31.359375 26.957031 L 32.984375 19.324219 L 32.984375 19.3125 C 33.045875 19.0335 33.267828 18.834641 33.529297 18.787109 z M 26.873047 32 C 25.657047 32 24.671875 32.985172 24.671875 34.201172 C 24.671875 35.417172 25.658047 36.402344 26.873047 36.402344 C 28.089047 36.402344 29.074219 35.416172 29.074219 34.201172 C 29.074219 32.985172 28.088047 32 26.873047 32 z M 37.0625 32 C 35.8475 32 34.862328 32.985172 34.861328 34.201172 C 34.861328 35.417172 35.8475 36.402344 37.0625 36.402344 C 38.2785 36.402344 39.263672 35.416172 39.263672 34.201172 C 39.263672 32.985172 38.2775 32 37.0625 32 z M 27.039062 39.279297 C 26.905687 39.279297 26.771609 39.324062 26.662109 39.414062 C 26.410109 39.622062 26.372078 39.999953 26.580078 40.251953 C 28.144078 41.427953 30.059578 42.029266 32.017578 41.947266 C 33.975578 42.029266 35.889125 41.427953 37.453125 40.251953 L 37.453125 40.339844 C 37.694125 40.103844 37.699844 39.711703 37.464844 39.470703 C 37.229844 39.229703 36.83475 39.223984 36.59375 39.458984 C 35.25375 40.415984 33.634141 40.885828 31.994141 40.798828 C 30.354141 40.874828 28.740969 40.382062 27.417969 39.414062 C 27.305969 39.324062 27.172438 39.279297 27.039062 39.279297 z"/></svg>